<svg height="512" viewBox="0 0 512 512" width="512" xmlns="http://www.w3.org/2000/svg"><g id="Solid"><path d="m264 200h31.548l-1.641-16h-29.907z"/><circle cx="192" cy="424" r="24"/><path d="m264 232h34.83l-1.641-16h-33.189z"/><path d="m264 168h28.266l-1.641-16h-26.625z"/><path d="m264 136h24.984l-1.641-16h-23.343z"/><path d="m288.35 264h13.762l-1.641-16h-35a24.392 24.392 0 0 0 22.879 16z"/><path d="m264 40v32h18.42l-2.021-19.701z"/><path d="m264 104h21.702l-1.641-16h-20.061z"/><path d="m192 368a56 56 0 1 0 56 56 56.063 56.063 0 0 0 -56-56zm0 96a40 40 0 1 1 40-40 40.045 40.045 0 0 1 -40 40z"/><path d="m268.748 373.431a71.231 71.231 0 0 1 42.445-20.9l-7.44-72.531h-15.4a40.4 40.4 0 0 1 -40.353-40.35v-199.65l-16.4 12.3-27.455 267.7h27.855a32.036 32.036 0 0 1 32 32v26.74q2.231-2.746 4.748-5.309zm-20.748-61.431v-16h16v16z"/><path d="m374.937 450.251a8 8 0 0 1 -1.917-8.231 56 56 0 0 0 -51.744-74c-.431-.01-.864-.015-1.294-.015a56 56 0 0 0 -55.946 58.048 55.992 55.992 0 0 0 91.9 40.892 8 8 0 0 1 10.794.475l2.928 2.928a8.97 8.97 0 0 0 12.686-12.686zm-54.937 13.749a40 40 0 1 1 40-40 40.045 40.045 0 0 1 -40 40z"/><circle cx="320" cy="424" r="24"/><path d="m232 336h-29.5l-1.7 16.558a71.96 71.96 0 0 1 47.2 26.257v-26.815a16.019 16.019 0 0 0 -16-16z"/></g></svg>