<svg id="Capa_1" enable-background="new 0 0 512 512" height="512" viewBox="0 0 512 512" width="512" xmlns="http://www.w3.org/2000/svg"><path d="m459.249 157.691h-41.533c-5.019 0-9.784 1.095-14.083 3.044v-13.107c0-81.402-66.228-147.628-147.633-147.628-81.39 0-147.605 66.226-147.605 147.628v13.114c-4.307-1.954-9.082-3.052-14.111-3.052h-41.533c-18.887 0-34.251 15.38-34.251 34.284 0 18.888 15.364 34.255 34.251 34.255h8.926v118.986c0 5.57 4.515 10.085 10.084 10.085h37.857c4.536 18.487 21.238 32.247 41.102 32.247h67.714v48.149c-11.733 3.332-22.544 8.241-31.866 14.571-19.882 13.499-30.831 31.841-30.831 51.648 0 5.57 4.515 10.085 10.084 10.085h180.357c5.569 0 10.084-4.515 10.084-10.085 0-19.807-10.949-38.149-30.831-51.648-9.322-6.329-20.133-11.239-31.866-14.571v-48.149h67.714c19.876 0 36.59-13.76 41.129-32.247h37.83c5.569 0 10.084-4.515 10.084-10.085v-118.985h8.926c18.887 0 34.251-15.367 34.251-34.255.001-18.904-15.363-34.284-34.25-34.284zm-75.784-10.063v82.118c0 9.892-8.046 17.94-17.936 17.94h-44.708v-209.762c37.468 22.221 62.644 63.075 62.644 109.704zm-117.381 100.058v-63.249c0-5.57-4.515-10.085-10.084-10.085s-10.084 4.515-10.084 10.085v63.249h-34.54v-219.445c10.89-4.085 22.48-6.724 34.54-7.673v74.072c0 5.57 4.515 10.085 10.084 10.085s10.084-4.515 10.084-10.085v-74.072c12.07.949 23.67 3.591 34.568 7.68v219.438zm-27.481 55.199v-35.029h34.794v35.029zm-110.039-155.257c0-46.635 25.176-87.493 62.644-109.712v209.77h-44.708c-9.89 0-17.936-8.048-17.936-17.94zm-89.896 44.347c0-7.783 6.318-14.114 14.083-14.114h41.533c7.78 0 14.111 6.331 14.111 14.114 0 7.767-6.331 14.085-14.111 14.085h-41.533c-7.765 0-14.083-6.318-14.083-14.085zm43.178 34.255h12.439c5.029 0 9.804-1.097 14.111-3.049v6.566c0 21.013 17.093 38.109 38.104 38.109h71.935v35.029h-67.714c-19.863 0-36.566 13.76-41.102 32.247h-27.773zm252.642 265.6h-156.976c2.962-9.194 9.948-17.79 20.385-24.876 9.243-6.275 20.393-10.841 32.61-13.496.043-.009.085-.019.128-.028 8.07-1.744 16.598-2.664 25.364-2.664s17.295.919 25.364 2.664c.043.009.085.02.128.028 12.217 2.656 23.368 7.221 32.61 13.496 10.438 7.086 17.425 15.682 20.387 24.876zm-61.091-60.161c-5.693-.698-11.505-1.073-17.397-1.073s-11.704.375-17.397 1.073v-44.121h34.794zm87.882-64.291h-210.558c-12.217 0-22.157-9.942-22.157-22.162s9.94-22.162 22.157-22.162h210.559c12.233 0 22.185 9.942 22.185 22.162s-9.953 22.162-22.186 22.162zm68.875-32.247h-27.746c-4.539-18.487-21.253-32.247-41.129-32.247h-67.714v-35.029h71.964c21.011 0 38.104-17.096 38.104-38.109v-6.558c4.299 1.948 9.064 3.042 14.083 3.042h12.439v108.901zm29.095-129.071h-41.533c-7.765 0-14.083-6.319-14.083-14.085 0-7.783 6.318-14.114 14.083-14.114h41.533c7.765 0 14.083 6.331 14.083 14.114 0 7.767-6.318 14.085-14.083 14.085z"/><path d="m256 129.354c-5.569 0-10.084 4.515-10.084 10.085v.199c0 5.57 4.515 10.085 10.084 10.085s10.084-4.515 10.084-10.085v-.199c0-5.57-4.515-10.085-10.084-10.085z"/></svg>