<?xml version="1.0"?>
<svg xmlns="http://www.w3.org/2000/svg" id="Outline" viewBox="0 0 512 512" width="512" height="512"><path d="M168,248V424a8,8,0,0,0,8,8H336a8,8,0,0,0,8-8V248a8,8,0,0,0-8-8H176A8,8,0,0,0,168,248Zm16,8H328V416H184Z"/><path d="M200,143.986A8.014,8.014,0,0,0,191.986,152v24H176a40.045,40.045,0,0,0-40,40V456a40.045,40.045,0,0,0,40,40H336a40.045,40.045,0,0,0,40-40V216a40.045,40.045,0,0,0-40-40H320.014V152A8.014,8.014,0,0,0,312,143.986H280.014V96l47.972.014V120A8.014,8.014,0,0,0,336,128.014h32A8.014,8.014,0,0,0,376.014,120V56A8.014,8.014,0,0,0,368,47.986H311.193A40.069,40.069,0,0,0,272,16H240a40.045,40.045,0,0,0-40,40V88a8,8,0,0,0,8,8h23.986v47.986ZM312,64.014h47.986v47.972H344.014V88A8.014,8.014,0,0,0,336,79.986H312ZM336,192a24.028,24.028,0,0,1,24,24V456a24.028,24.028,0,0,1-24,24H176a24.028,24.028,0,0,1-24-24V216a24.028,24.028,0,0,1,24-24ZM216,80V56a24.028,24.028,0,0,1,24-24h32a24.028,24.028,0,0,1,24,24V80Zm47.986,16v47.986H248.014V96Zm40,64.014V176H208.014V160.014Z"/><path d="M72,440a24,24,0,1,0,24-24A24.028,24.028,0,0,0,72,440Zm24-8a8,8,0,1,1-8,8A8.009,8.009,0,0,1,96,432Z"/><path d="M72,288a32,32,0,1,0,32,32A32.036,32.036,0,0,0,72,288Zm0,48a16,16,0,1,1,16-16A16.019,16.019,0,0,1,72,336Z"/><path d="M392,328a24,24,0,1,0,24-24A24.028,24.028,0,0,0,392,328Zm24-8a8,8,0,1,1-8,8A8.009,8.009,0,0,1,416,320Z"/><path d="M440,240a32,32,0,1,0-32-32A32.037,32.037,0,0,0,440,240Zm0-48a16,16,0,1,1-16,16A16.019,16.019,0,0,1,440,192Z"/><path d="M261.422,282.117a8,8,0,0,0-10.844,0A153.959,153.959,0,0,0,233.6,301.265C221.92,316.86,216,331.239,216,344c0,14.459,3.916,26.624,11.325,35.179a38.477,38.477,0,0,0,57.35,0C292.084,370.624,296,358.459,296,344c0-12.761-5.92-27.14-17.6-42.735A153.959,153.959,0,0,0,261.422,282.117ZM256,376c-14.8,0-24-12.262-24-32,0-15.454,14.354-34.257,24.007-44.66C265.66,309.724,280,328.493,280,344,280,363.738,270.8,376,256,376Z"/></svg>
